<svg xmlns="http://www.w3.org/2000/svg" xmlns:xlink="http://www.w3.org/1999/xlink" version="1.1" width="256" height="256" viewBox="0 0 256 256" xml:space="preserve">

<defs>
</defs>
<g style="stroke: none; stroke-width: 0; stroke-dasharray: none; stroke-linecap: butt; stroke-linejoin: miter; stroke-miterlimit: 10; fill: none; fill-rule: nonzero; opacity: 1;" transform="translate(1.4065934065934016 1.4065934065934016) scale(2.81 2.81)" >
	<path d="M 81.636 19.25 c -4.612 0 -8.363 3.752 -8.363 8.364 c 0 1.825 0.594 3.51 1.59 4.887 L 52.748 55.435 c -1.329 -0.891 -2.926 -1.412 -4.643 -1.412 c -1.5 0 -2.906 0.402 -4.125 1.097 l -8.099 -9.719 c 1.221 -1.454 1.959 -3.326 1.959 -5.368 c 0 -4.612 -3.752 -8.364 -8.364 -8.364 s -8.364 3.752 -8.364 8.364 c 0 1.856 0.615 3.567 1.642 4.956 L 12.932 55.39 c -1.315 -0.861 -2.883 -1.367 -4.568 -1.367 C 3.752 54.023 0 57.775 0 62.387 c 0 4.612 3.752 8.363 8.364 8.363 c 4.612 0 8.364 -3.751 8.364 -8.363 c 0 -1.856 -0.615 -3.567 -1.642 -4.956 l 9.823 -10.401 c 1.315 0.861 2.882 1.366 4.568 1.366 c 1.5 0 2.906 -0.402 4.125 -1.097 l 8.099 9.719 c -1.221 1.454 -1.959 3.326 -1.959 5.369 c 0 4.612 3.752 8.363 8.364 8.363 c 4.612 0 8.363 -3.751 8.363 -8.363 c 0 -1.825 -0.594 -3.51 -1.59 -4.887 l 22.115 -22.935 c 1.329 0.891 2.926 1.412 4.642 1.412 c 4.612 0 8.364 -3.752 8.364 -8.364 C 90 23.001 86.248 19.25 81.636 19.25 z M 8.364 67.783 c -2.976 0 -5.397 -2.42 -5.397 -5.396 c 0 -2.976 2.421 -5.397 5.397 -5.397 c 2.976 0 5.397 2.421 5.397 5.397 C 13.76 65.363 11.339 67.783 8.364 67.783 z M 24.08 40.032 c 0 -2.976 2.421 -5.397 5.397 -5.397 s 5.397 2.421 5.397 5.397 s -2.421 5.397 -5.397 5.397 S 24.08 43.008 24.08 40.032 z M 48.105 67.783 c -2.976 0 -5.397 -2.42 -5.397 -5.396 c 0 -2.976 2.421 -5.397 5.397 -5.397 c 2.976 0 5.396 2.421 5.396 5.397 C 53.501 65.363 51.081 67.783 48.105 67.783 z M 81.636 33.01 c -2.976 0 -5.396 -2.421 -5.396 -5.397 s 2.42 -5.397 5.396 -5.397 c 2.976 0 5.397 2.421 5.397 5.397 S 84.612 33.01 81.636 33.01 z" style="stroke: none; stroke-width: 1; stroke-dasharray: none; stroke-linecap: butt; stroke-linejoin: miter; stroke-miterlimit: 10; fill: rgb(0,0,0); fill-rule: nonzero; opacity: 1;" transform=" matrix(1 0 0 1 0 0) " stroke-linecap="round" />
</g>
</svg>